<svg width="1800" height="656" viewBox="0 0 1800 656" fill="none" xmlns="http://www.w3.org/2000/svg">
<g clip-path="url(#clip0_2103_3381)">
<g clip-path="url(#clip1_2103_3381)">
<g clip-path="url(#clip2_2103_3381)">
<path opacity="0.05" d="M1827.84 0.5H-27.8396C-34.7643 0.5 -40.3779 6.11362 -40.3779 13.0384V643.092C-40.3779 650.016 -34.7643 655.63 -27.8396 655.63H1827.84C1834.76 655.63 1840.38 650.016 1840.38 643.092V13.0384C1840.38 6.11362 1834.76 0.5 1827.84 0.5Z" fill="#EB662B"/>
<mask id="mask0_2103_3381" style="mask-type:alpha" maskUnits="userSpaceOnUse" x="-41" y="0" width="1882" height="656">
<path d="M1827.84 0.5H-27.8396C-34.7643 0.5 -40.3779 6.11362 -40.3779 13.0384V643.092C-40.3779 650.016 -34.7643 655.63 -27.8396 655.63H1827.84C1834.76 655.63 1840.38 650.016 1840.38 643.092V13.0384C1840.38 6.11362 1834.76 0.5 1827.84 0.5Z" fill="#F5F5F5"/>
</mask>
<g mask="url(#mask0_2103_3381)">
<path d="M-40.3779 14.3475C-40.3779 14.3475 8.0506 20.9493 52.4989 21.4099C97.61 21.8705 136.088 21.4099 191.15 19.107C266.115 16.0363 410.738 3.60039 487.693 10.3557C564.649 17.1111 567.965 17.4181 607.107 21.717C650.891 26.6299 739.788 36.4558 849.912 35.9952C967.335 35.5347 1180.29 10.5093 1267.86 11.7375C1277.14 11.8911 1311.65 12.9657 1337.52 14.8081C1362.73 16.6505 1399.87 20.6422 1450.3 22.024C1471.52 22.6381 1505.36 23.7129 1544.5 23.4058C1554.45 23.2523 1586.3 22.7917 1624.11 20.9493C1661.93 19.107 1697.09 16.1898 1728.92 15.2687C1797.26 13.5799 1840.38 16.0363 1840.38 16.0363V-0.544922H-40.3779V14.3475ZM110.215 16.804C114.86 15.2687 123.483 16.1898 138.742 16.1898C154 16.1898 179.21 14.3475 177.219 14.501C175.229 14.6546 156.653 16.804 137.415 17.4181C117.513 18.1857 106.235 18.3393 110.215 16.804ZM232.282 12.6587C232.282 12.6587 248.203 12.3516 269.433 11.2769C290.661 10.0487 337.764 6.97806 369.607 5.90334C424.006 4.21452 474.425 5.90334 469.781 6.05688C464.474 6.21041 406.095 5.13569 353.022 7.74571C331.13 8.82043 291.325 11.1234 270.76 11.8911C248.867 12.8122 232.282 12.6587 232.282 12.6587ZM611.75 12.5051C600.472 11.4305 699.983 19.7211 734.48 21.8704C748.412 22.7917 775.611 24.327 800.82 24.9411C826.693 25.5553 859.864 25.5553 859.2 25.7088C859.2 26.0158 820.723 26.937 784.899 25.7088C749.076 24.4805 750.402 24.0199 734.48 23.2523C709.27 22.024 623.028 13.5799 611.75 12.5051ZM519.537 10.0487C518.21 10.0487 524.844 9.43455 551.38 11.7375C577.916 14.0404 595.828 17.1111 597.156 17.4181C598.482 17.5717 573.937 14.6546 553.37 12.8122C533.468 10.9698 520.2 10.0487 519.537 10.0487ZM-37.0609 8.6669C-36.3976 8.82043 -24.4563 10.3557 -5.21761 12.5051C14.0213 14.6546 40.5576 16.804 39.2307 16.6505C37.904 16.6505 16.0116 15.7293 -9.8612 12.8122C-35.7341 9.89513 -37.7243 8.51336 -37.0609 8.6669ZM1632.73 17.2646C1632.06 16.9575 1645.33 16.9575 1662.58 15.4222C1679.83 13.887 1698.41 12.9657 1714.34 12.3516C1740.87 11.1234 1791.95 12.5051 1789.29 12.6587C1787.31 12.8122 1734.9 12.1981 1706.37 13.7334C1691.78 14.501 1690.45 14.501 1668.56 16.1898C1646.66 17.8788 1633.39 17.7252 1632.73 17.2646ZM1356.09 13.5799C1353.44 13.4264 1332.88 11.1234 1300.36 9.58808C1267.86 7.89924 1241.33 8.82043 1241.33 8.35983C1241.33 7.89924 1247.96 6.97806 1282.45 7.89924C1316.95 8.82043 1358.75 13.7334 1356.09 13.5799ZM1365.38 9.7416C1364.06 9.89513 1342.82 7.74571 1327.57 7.13159C1312.3 6.671 1314.96 6.36394 1314.96 6.21041C1314.96 6.05688 1322.26 5.90334 1332.88 6.51747C1344.15 7.28512 1366.71 9.58808 1365.38 9.7416ZM1219.43 6.21041C1218.77 6.51747 1196.21 7.43865 1182.28 8.97395C1168.35 10.5093 1170.34 9.89513 1169.68 9.7416C1169.01 9.58808 1174.98 8.51336 1185.59 7.74571C1196.21 6.82453 1220.09 5.90334 1219.43 6.21041ZM1406.51 16.4969C1407.18 16.9575 1404.52 17.2646 1393.91 16.1898C1383.29 15.1152 1376.66 14.1939 1379.31 14.3475C1381.96 14.501 1385.28 14.9616 1395.89 15.5758C1407.18 16.1898 1405.85 16.0363 1406.51 16.4969ZM1611.5 18.4928C1612.83 18.4928 1597.57 19.7211 1589.61 19.8745C1581.65 20.0281 1576.34 20.0281 1576.34 19.5676C1576.34 19.107 1577.01 18.7999 1586.96 18.9534C1597.57 19.107 1610.17 18.4928 1611.5 18.4928ZM830.674 31.8499C831.338 32.0035 846.596 31.3894 880.43 31.3894C913.6 31.3894 970.653 27.7047 994.535 26.0158C1018.41 24.3269 928.195 32.0034 885.073 32.3105C841.952 32.6176 830.011 31.6965 830.674 31.8499Z" fill="white"/>
<path d="M51.8351 27.0908C52.4986 26.9373 82.3517 27.5513 99.6003 27.0908C148.029 26.016 212.38 22.1778 209.726 22.6384C207.072 23.099 118.839 27.3979 96.9474 27.7049C64.4396 28.319 51.1718 27.0908 51.8351 27.0908Z" fill="white"/>
<path d="M331.792 14.5008C333.119 14.3473 361.646 12.9655 394.816 12.6584C427.987 12.3514 479.069 13.5796 476.415 13.426C474.424 13.2725 437.274 10.6625 388.182 11.5837C339.09 12.5049 330.466 14.6543 331.792 14.5008Z" fill="white"/>
<path d="M483.713 20.0279C484.376 19.8743 470.445 18.4926 462.484 18.3391C454.523 18.1855 449.215 18.3391 449.215 18.7997C449.215 19.2602 449.879 19.5673 459.83 19.4137C471.108 19.2602 483.049 20.1814 483.713 20.0279Z" fill="white"/>
<path d="M506.933 15.7293C506.933 15.5757 536.122 17.5716 548.727 19.1069C561.331 20.4887 589.858 23.8664 589.195 23.8664C588.531 24.0199 561.331 21.4099 547.4 19.8746C533.468 18.3393 506.933 15.8828 506.933 15.7293Z" fill="white"/>
<path d="M815.416 40.4475C816.079 40.294 845.933 40.908 863.181 40.4475C911.61 39.3727 975.96 35.5345 973.307 35.9951C970.653 36.4557 882.42 40.7545 860.527 41.0616C828.02 41.6757 814.753 40.601 815.416 40.4475Z" fill="white"/>
<path d="M1562.41 29.0863C1562.41 29.0863 1554.45 28.6257 1543.18 28.9328C1531.89 29.2399 1504.69 30.3145 1488.77 30.0075C1460.91 29.3934 1439.68 25.8621 1442.34 26.0157C1444.99 26.0157 1470.86 29.3934 1499.39 28.9328C1511.33 28.7793 1533.22 28.1651 1543.84 28.3186C1554.45 28.4722 1562.41 29.0863 1562.41 29.0863Z" fill="white"/>
<path d="M1339.51 18.8C1338.19 18.9535 1326.24 17.5717 1310.98 17.111C1295.72 16.8041 1297.05 16.6505 1297.05 16.3435C1297.05 16.1899 1308.99 15.7293 1319.61 16.3435C1330.22 17.111 1340.83 18.6464 1339.51 18.8Z" fill="white"/>
<path d="M1736.88 19.7212C1736.88 19.5677 1708.36 19.7212 1692.44 20.4889C1676.51 21.2565 1659.27 23.4059 1659.27 23.5595C1659.27 23.713 1677.18 22.3313 1693.1 21.41C1708.36 20.4889 1736.23 19.8748 1736.88 19.7212Z" fill="white"/>
</g>
</g>
</g>
</g>
<defs>
<clipPath id="clip0_2103_3381">
<rect y="0.5" width="1800" height="655.13" rx="12" fill="white"/>
</clipPath>
<clipPath id="clip1_2103_3381">
<rect width="1800" height="655.13" fill="white" transform="translate(0 0.5)"/>
</clipPath>
<clipPath id="clip2_2103_3381">
<rect width="1880.76" height="655.13" fill="white" transform="translate(-40.3779 0.5)"/>
</clipPath>
</defs>
</svg>
